<?xml version="1.0" encoding="utf-8" standalone="no"?>
<!DOCTYPE svg PUBLIC "-//W3C//DTD SVG 1.1//EN"
  "http://www.w3.org/Graphics/SVG/1.1/DTD/svg11.dtd">
<!-- Created with matplotlib (https://matplotlib.org/) -->
<svg height="341.9175pt" version="1.1" viewBox="0 0 835.027685 341.9175" width="835.027685pt" xmlns="http://www.w3.org/2000/svg" xmlns:xlink="http://www.w3.org/1999/xlink">
 <defs>
  <style type="text/css">
*{stroke-linecap:butt;stroke-linejoin:round;}
  </style>
 </defs>
 <g id="figure_1">
  <g id="patch_1">
   <path d="M 0 341.9175 
L 835.027685 341.9175 
L 835.027685 0 
L 0 0 
z
" style="fill:#ffffff;"/>
  </g>
  <g id="axes_1">
   <g id="patch_2">
    <path d="M 57.56875 244.8175 
L 292.634761 244.8175 
L 292.634761 30.6975 
L 57.56875 30.6975 
z
" style="fill:#ffffff;"/>
   </g>
   <g id="PolyCollection_1">
    <defs>
     <path d="M 68.253569 -207.683359 
L 68.253569 -204.742618 
L 75.885582 -203.957047 
L 83.517595 -204.442281 
L 91.149609 -204.460803 
L 98.781622 -204.62401 
L 106.413635 -204.641622 
L 114.045649 -204.958736 
L 121.677662 -204.828712 
L 129.309675 -204.870767 
L 136.941689 -205.083099 
L 144.573702 -205.12361 
L 152.205715 -204.88734 
L 159.837729 -204.992383 
L 167.469742 -204.923523 
L 175.101755 -204.978872 
L 182.733769 -205.048089 
L 190.365782 -204.972378 
L 197.997796 -205.017256 
L 205.629809 -205.093694 
L 213.261822 -204.921102 
L 220.893836 -204.816981 
L 228.525849 -204.947042 
L 236.157862 -204.786364 
L 243.789876 -204.610034 
L 251.421889 -204.33388 
L 259.053902 -204.423102 
L 266.685916 -204.261549 
L 274.317929 -203.802938 
L 281.949942 -204.428431 
L 281.949942 -207.386293 
L 281.949942 -207.386293 
L 274.317929 -206.616076 
L 266.685916 -207.224321 
L 259.053902 -207.212216 
L 251.421889 -207.267222 
L 243.789876 -207.587385 
L 236.157862 -207.696055 
L 228.525849 -207.751937 
L 220.893836 -207.617484 
L 213.261822 -207.743791 
L 205.629809 -207.883109 
L 197.997796 -207.82629 
L 190.365782 -207.939437 
L 182.733769 -207.816117 
L 175.101755 -207.841473 
L 167.469742 -207.791725 
L 159.837729 -207.872581 
L 152.205715 -207.711793 
L 144.573702 -207.79005 
L 136.941689 -207.761671 
L 129.309675 -207.715639 
L 121.677662 -207.593968 
L 114.045649 -207.706123 
L 106.413635 -207.504775 
L 98.781622 -207.528831 
L 91.149609 -207.353141 
L 83.517595 -207.461407 
L 75.885582 -206.676985 
L 68.253569 -207.683359 
z
" id="m8baa1df5f1" style="stroke:#808080;stroke-opacity:0.2;"/>
    </defs>
    <g clip-path="url(#p0152f909c2)">
     <use style="fill:#808080;fill-opacity:0.2;stroke:#808080;stroke-opacity:0.2;" x="0" xlink:href="#m8baa1df5f1" y="341.9175"/>
    </g>
   </g>
   <g id="PolyCollection_2">
    <defs>
     <path d="M 68.253569 -162.676548 
L 68.253569 -120.251041 
L 75.885582 -119.063754 
L 83.517595 -122.197871 
L 91.149609 -122.802534 
L 98.781622 -123.718709 
L 106.413635 -124.705421 
L 114.045649 -130.252684 
L 121.677662 -130.58372 
L 129.309675 -134.324731 
L 136.941689 -137.922674 
L 144.573702 -137.360004 
L 152.205715 -137.440727 
L 159.837729 -139.997415 
L 167.469742 -142.900827 
L 175.101755 -144.617688 
L 182.733769 -146.462941 
L 190.365782 -150.48279 
L 197.997796 -147.505473 
L 205.629809 -150.30247 
L 213.261822 -148.557033 
L 220.893836 -151.717037 
L 228.525849 -154.093563 
L 236.157862 -156.745589 
L 243.789876 -156.631286 
L 251.421889 -155.541607 
L 259.053902 -156.356777 
L 266.685916 -155.469833 
L 274.317929 -151.429604 
L 281.949942 -144.036999 
L 281.949942 -178.142792 
L 281.949942 -178.142792 
L 274.317929 -192.684444 
L 266.685916 -196.052444 
L 259.053902 -196.831678 
L 251.421889 -197.997149 
L 243.789876 -199.560226 
L 236.157862 -200.075059 
L 228.525849 -196.050855 
L 220.893836 -198.393653 
L 213.261822 -196.670183 
L 205.629809 -196.430075 
L 197.997796 -196.873469 
L 190.365782 -197.0032 
L 182.733769 -198.001638 
L 175.101755 -190.508092 
L 167.469742 -193.628544 
L 159.837729 -189.946735 
L 152.205715 -189.530683 
L 144.573702 -188.295053 
L 136.941689 -186.474168 
L 129.309675 -181.318589 
L 121.677662 -178.488098 
L 114.045649 -177.185204 
L 106.413635 -173.020219 
L 98.781622 -169.240762 
L 91.149609 -169.596927 
L 83.517595 -166.523493 
L 75.885582 -161.039562 
L 68.253569 -162.676548 
z
" id="mc64073d163" style="stroke:#8c564b;stroke-opacity:0.2;"/>
    </defs>
    <g clip-path="url(#p0152f909c2)">
     <use style="fill:#8c564b;fill-opacity:0.2;stroke:#8c564b;stroke-opacity:0.2;" x="0" xlink:href="#mc64073d163" y="341.9175"/>
    </g>
   </g>
   <g id="PolyCollection_3">
    <defs>
     <path d="M 68.253569 -222.48037 
L 68.253569 -193.073298 
L 75.885582 -195.023108 
L 83.517595 -199.359062 
L 91.149609 -200.861545 
L 98.781622 -203.455765 
L 106.413635 -203.643455 
L 114.045649 -205.963732 
L 121.677662 -208.128754 
L 129.309675 -207.930889 
L 136.941689 -208.585104 
L 144.573702 -210.628805 
L 152.205715 -210.799259 
L 159.837729 -209.420936 
L 167.469742 -208.744973 
L 175.101755 -208.033698 
L 182.733769 -207.820799 
L 190.365782 -206.396244 
L 197.997796 -207.528204 
L 205.629809 -205.094674 
L 213.261822 -204.314051 
L 220.893836 -202.964809 
L 228.525849 -201.42288 
L 236.157862 -199.872403 
L 243.789876 -198.81271 
L 251.421889 -198.529365 
L 259.053902 -196.444323 
L 266.685916 -194.088329 
L 274.317929 -192.651887 
L 281.949942 -191.662263 
L 281.949942 -219.466105 
L 281.949942 -219.466105 
L 274.317929 -218.926521 
L 266.685916 -221.383045 
L 259.053902 -223.014759 
L 251.421889 -223.307086 
L 243.789876 -223.986984 
L 236.157862 -224.247056 
L 228.525849 -226.231107 
L 220.893836 -227.451879 
L 213.261822 -228.489681 
L 205.629809 -229.139411 
L 197.997796 -230.03906 
L 190.365782 -229.718218 
L 182.733769 -230.714873 
L 175.101755 -230.575897 
L 167.469742 -232.337724 
L 159.837729 -232.023176 
L 152.205715 -232.58004 
L 144.573702 -232.506392 
L 136.941689 -231.108815 
L 129.309675 -232.387874 
L 121.677662 -231.322301 
L 114.045649 -230.802307 
L 106.413635 -229.627194 
L 98.781622 -229.245876 
L 91.149609 -229.643751 
L 83.517595 -226.138663 
L 75.885582 -223.830564 
L 68.253569 -222.48037 
z
" id="mb6a98370d2" style="stroke:#1f77b4;stroke-opacity:0.2;"/>
    </defs>
    <g clip-path="url(#p0152f909c2)">
     <use style="fill:#1f77b4;fill-opacity:0.2;stroke:#1f77b4;stroke-opacity:0.2;" x="0" xlink:href="#mb6a98370d2" y="341.9175"/>
    </g>
   </g>
   <g id="matplotlib.axis_1">
    <g id="xtick_1">
     <g id="line2d_1">
      <defs>
       <path d="M 0 0 
L 0 3.5 
" id="m353e61ab0b" style="stroke:#000000;stroke-width:0.8;"/>
      </defs>
      <g>
       <use style="stroke:#000000;stroke-width:0.8;" x="60.621555" xlink:href="#m353e61ab0b" y="244.8175"/>
      </g>
     </g>
     <g id="text_1">
      <text style="font-family:FreeSans;font-size:15px;font-style:normal;font-weight:normal;text-anchor:middle;" transform="rotate(-0, 60.621555, 262.753437)" x="60.621555" y="262.753437">0</text>
     </g>
    </g>
    <g id="xtick_2">
     <g id="line2d_2">
      <g>
       <use style="stroke:#000000;stroke-width:0.8;" x="136.941689" xlink:href="#m353e61ab0b" y="244.8175"/>
      </g>
     </g>
     <g id="text_2">
      <text style="font-family:FreeSans;font-size:15px;font-style:normal;font-weight:normal;text-anchor:middle;" transform="rotate(-0, 136.941689, 262.753437)" x="136.941689" y="262.753437">10</text>
     </g>
    </g>
    <g id="xtick_3">
     <g id="line2d_3">
      <g>
       <use style="stroke:#000000;stroke-width:0.8;" x="213.261822" xlink:href="#m353e61ab0b" y="244.8175"/>
      </g>
     </g>
     <g id="text_3">
      <text style="font-family:FreeSans;font-size:15px;font-style:normal;font-weight:normal;text-anchor:middle;" transform="rotate(-0, 213.261822, 262.753437)" x="213.261822" y="262.753437">20</text>
     </g>
    </g>
    <g id="xtick_4">
     <g id="line2d_4">
      <g>
       <use style="stroke:#000000;stroke-width:0.8;" x="289.581956" xlink:href="#m353e61ab0b" y="244.8175"/>
      </g>
     </g>
     <g id="text_4">
      <text style="font-family:FreeSans;font-size:15px;font-style:normal;font-weight:normal;text-anchor:middle;" transform="rotate(-0, 289.581956, 262.753437)" x="289.581956" y="262.753437">30</text>
     </g>
    </g>
    <g id="text_5">
     <text style="font-family:FreeSans;font-size:20px;font-style:normal;font-weight:normal;text-anchor:middle;" transform="rotate(-0, 175.101755, 284.841719)" x="175.101755" y="284.841719">Split-trial</text>
    </g>
   </g>
   <g id="matplotlib.axis_2">
    <g id="ytick_1">
     <g id="line2d_5">
      <defs>
       <path d="M 0 0 
L -3.5 0 
" id="m1223a7eeb0" style="stroke:#000000;stroke-width:0.8;"/>
      </defs>
      <g>
       <use style="stroke:#000000;stroke-width:0.8;" x="57.56875" xlink:href="#m1223a7eeb0" y="201.9935"/>
      </g>
     </g>
     <g id="text_6">
      <text style="font-family:FreeSans;font-size:15px;font-style:normal;font-weight:normal;text-anchor:end;" transform="rotate(-0, 50.56875, 207.461469)" x="50.56875" y="207.461469">0.4</text>
     </g>
    </g>
    <g id="ytick_2">
     <g id="line2d_6">
      <g>
       <use style="stroke:#000000;stroke-width:0.8;" x="57.56875" xlink:href="#m1223a7eeb0" y="144.894833"/>
      </g>
     </g>
     <g id="text_7">
      <text style="font-family:FreeSans;font-size:15px;font-style:normal;font-weight:normal;text-anchor:end;" transform="rotate(-0, 50.56875, 150.362802)" x="50.56875" y="150.362802">0.6</text>
     </g>
    </g>
    <g id="ytick_3">
     <g id="line2d_7">
      <g>
       <use style="stroke:#000000;stroke-width:0.8;" x="57.56875" xlink:href="#m1223a7eeb0" y="87.796167"/>
      </g>
     </g>
     <g id="text_8">
      <text style="font-family:FreeSans;font-size:15px;font-style:normal;font-weight:normal;text-anchor:end;" transform="rotate(-0, 50.56875, 93.264135)" x="50.56875" y="93.264135">0.8</text>
     </g>
    </g>
    <g id="ytick_4">
     <g id="line2d_8">
      <g>
       <use style="stroke:#000000;stroke-width:0.8;" x="57.56875" xlink:href="#m1223a7eeb0" y="30.6975"/>
      </g>
     </g>
     <g id="text_9">
      <text style="font-family:FreeSans;font-size:15px;font-style:normal;font-weight:normal;text-anchor:end;" transform="rotate(-0, 50.56875, 36.165469)" x="50.56875" y="36.165469">1.0</text>
     </g>
    </g>
    <g id="text_10">
     <text style="font-family:FreeSans;font-size:20px;font-style:normal;font-weight:normal;text-anchor:middle;" transform="rotate(-90, 21.78125, 137.7575)" x="21.78125" y="137.7575">pr(template)</text>
    </g>
   </g>
   <g id="line2d_9">
    <path clip-path="url(#p0152f909c2)" d="M 68.253569 135.717909 
L 75.885582 136.602262 
L 83.517595 135.966189 
L 91.149609 136.010525 
L 98.781622 135.801325 
L 106.413635 135.82113 
L 114.045649 135.565917 
L 121.677662 135.731739 
L 129.309675 135.703931 
L 136.941689 135.53721 
L 144.573702 135.384822 
L 152.205715 135.591457 
L 159.837729 135.527035 
L 167.469742 135.543903 
L 175.101755 135.500944 
L 182.733769 135.502721 
L 190.365782 135.499644 
L 197.997796 135.471206 
L 205.629809 135.447078 
L 213.261822 135.586755 
L 220.893836 135.631585 
L 228.525849 135.594853 
L 236.157862 135.691287 
L 243.789876 135.778495 
L 251.421889 136.014369 
L 259.053902 136.080501 
L 266.685916 136.171981 
L 274.317929 136.712174 
L 281.949942 135.948984 
" style="fill:none;stroke:#808080;stroke-linecap:square;stroke-width:2;"/>
   </g>
   <g id="line2d_10">
    <path clip-path="url(#p0152f909c2)" d="M 68.253569 201.140991 
L 75.885582 202.810452 
L 83.517595 198.611723 
L 91.149609 196.796836 
L 98.781622 195.389252 
L 106.413635 192.767779 
L 114.045649 188.109481 
L 121.677662 187.305882 
L 129.309675 183.026933 
L 136.941689 178.741838 
L 144.573702 178.136703 
L 152.205715 177.592938 
L 159.837729 176.240606 
L 167.469742 173.643897 
L 175.101755 172.177529 
L 182.733769 170.802809 
L 190.365782 169.634338 
L 197.997796 168.763072 
L 205.629809 168.113863 
L 213.261822 167.547881 
L 220.893836 166.230141 
L 228.525849 166.236511 
L 236.157862 163.705204 
L 243.789876 163.650156 
L 251.421889 164.459054 
L 259.053902 165.330293 
L 266.685916 166.349675 
L 274.317929 169.745018 
L 281.949942 181.741482 
" style="fill:none;stroke:#8c564b;stroke-linecap:square;stroke-width:2;"/>
   </g>
   <g id="line2d_11">
    <path clip-path="url(#p0152f909c2)" d="M 68.253569 133.927979 
L 75.885582 132.363832 
L 83.517595 128.904267 
L 91.149609 126.062575 
L 98.781622 125.54285 
L 106.413635 125.281314 
L 114.045649 123.81044 
L 121.677662 122.615754 
L 129.309675 122.195955 
L 136.941689 121.650317 
L 144.573702 120.547609 
L 152.205715 120.178497 
L 159.837729 120.273213 
L 167.469742 120.968191 
L 175.101755 121.997387 
L 182.733769 122.629159 
L 190.365782 123.150269 
L 197.997796 123.731663 
L 205.629809 124.632727 
L 213.261822 125.516178 
L 220.893836 126.390427 
L 228.525849 128.412661 
L 236.157862 129.849807 
L 243.789876 130.260997 
L 251.421889 131.198626 
L 259.053902 132.460222 
L 266.685916 134.135703 
L 274.317929 135.747069 
L 281.949942 135.994965 
" style="fill:none;stroke:#1f77b4;stroke-linecap:square;stroke-width:2;"/>
   </g>
   <g id="patch_3">
    <path d="M 57.56875 244.8175 
L 57.56875 30.6975 
" style="fill:none;stroke:#000000;stroke-linecap:square;stroke-linejoin:miter;stroke-width:0.8;"/>
   </g>
   <g id="patch_4">
    <path d="M 292.634761 244.8175 
L 292.634761 30.6975 
" style="fill:none;stroke:#000000;stroke-linecap:square;stroke-linejoin:miter;stroke-width:0.8;"/>
   </g>
   <g id="patch_5">
    <path d="M 57.56875 244.8175 
L 292.634761 244.8175 
" style="fill:none;stroke:#000000;stroke-linecap:square;stroke-linejoin:miter;stroke-width:0.8;"/>
   </g>
   <g id="patch_6">
    <path d="M 57.56875 30.6975 
L 292.634761 30.6975 
" style="fill:none;stroke:#000000;stroke-linecap:square;stroke-linejoin:miter;stroke-width:0.8;"/>
   </g>
   <g id="text_11">
    <text style="font-family:FreeSans;font-size:24px;font-style:normal;font-weight:normal;text-anchor:middle;" transform="rotate(-0, 175.101755, 24.6975)" x="175.101755" y="24.6975">Session 1</text>
   </g>
  </g>
  <g id="axes_2">
   <g id="patch_7">
    <path d="M 322.522083 244.8175 
L 557.588094 244.8175 
L 557.588094 30.6975 
L 322.522083 30.6975 
z
" style="fill:#ffffff;"/>
   </g>
   <g id="PolyCollection_4">
    <defs>
     <path d="M 333.206902 -203.355259 
L 333.206902 -201.287354 
L 340.838915 -200.187858 
L 348.470929 -200.750293 
L 356.102942 -200.82912 
L 363.734955 -200.962521 
L 371.366969 -200.826199 
L 378.998982 -201.055 
L 386.630995 -200.918807 
L 394.263009 -200.901799 
L 401.895022 -200.796745 
L 409.527035 -201.025637 
L 417.159049 -201.002601 
L 424.791062 -201.14505 
L 432.423075 -200.929275 
L 440.055089 -201.004194 
L 447.687102 -200.841587 
L 455.319115 -201.026557 
L 462.951129 -200.894245 
L 470.583142 -200.950548 
L 478.215156 -200.737924 
L 485.847169 -200.89995 
L 493.479182 -200.80682 
L 501.111196 -200.655212 
L 508.743209 -200.331394 
L 516.375222 -200.477229 
L 524.007236 -200.242332 
L 531.639249 -200.179364 
L 539.271262 -199.513153 
L 546.903276 -200.475501 
L 546.903276 -202.564827 
L 546.903276 -202.564827 
L 539.271262 -201.643456 
L 531.639249 -202.207948 
L 524.007236 -202.338438 
L 516.375222 -202.575983 
L 508.743209 -202.499126 
L 501.111196 -202.752469 
L 493.479182 -202.734734 
L 485.847169 -202.970342 
L 478.215156 -202.844268 
L 470.583142 -202.955887 
L 462.951129 -202.952372 
L 455.319115 -203.095001 
L 447.687102 -202.844186 
L 440.055089 -202.989993 
L 432.423075 -202.926132 
L 424.791062 -203.086238 
L 417.159049 -202.966001 
L 409.527035 -203.039328 
L 401.895022 -202.897535 
L 394.263009 -203.000522 
L 386.630995 -202.93242 
L 378.998982 -203.117065 
L 371.366969 -202.76773 
L 363.734955 -203.008502 
L 356.102942 -202.854965 
L 348.470929 -202.764559 
L 340.838915 -202.118173 
L 333.206902 -203.355259 
z
" id="m753c7bc800" style="stroke:#808080;stroke-opacity:0.2;"/>
    </defs>
    <g clip-path="url(#pe99795719f)">
     <use style="fill:#808080;fill-opacity:0.2;stroke:#808080;stroke-opacity:0.2;" x="0" xlink:href="#m753c7bc800" y="341.9175"/>
    </g>
   </g>
   <g id="PolyCollection_5">
    <defs>
     <path d="M 333.206902 -156.077464 
L 333.206902 -114.824857 
L 340.838915 -112.830056 
L 348.470929 -128.388358 
L 356.102942 -134.203562 
L 363.734955 -132.362403 
L 371.366969 -136.691553 
L 378.998982 -143.877404 
L 386.630995 -149.575293 
L 394.263009 -153.65612 
L 401.895022 -157.007018 
L 409.527035 -157.46072 
L 417.159049 -155.407827 
L 424.791062 -155.472701 
L 432.423075 -152.589809 
L 440.055089 -155.607023 
L 447.687102 -151.532885 
L 455.319115 -150.695393 
L 462.951129 -153.430019 
L 470.583142 -154.136661 
L 478.215156 -157.229217 
L 485.847169 -159.364794 
L 493.479182 -157.333087 
L 501.111196 -158.594973 
L 508.743209 -160.348085 
L 516.375222 -159.328709 
L 524.007236 -159.297718 
L 531.639249 -159.91206 
L 539.271262 -160.654645 
L 546.903276 -150.653535 
L 546.903276 -188.314633 
L 546.903276 -188.314633 
L 539.271262 -196.332497 
L 531.639249 -196.325169 
L 524.007236 -193.468444 
L 516.375222 -192.831641 
L 508.743209 -192.625044 
L 501.111196 -190.516988 
L 493.479182 -189.162132 
L 485.847169 -189.162293 
L 478.215156 -188.725722 
L 470.583142 -187.011649 
L 462.951129 -184.553994 
L 455.319115 -184.690795 
L 447.687102 -185.704895 
L 440.055089 -185.98171 
L 432.423075 -186.794676 
L 424.791062 -186.41534 
L 417.159049 -186.894173 
L 409.527035 -185.22856 
L 401.895022 -185.035558 
L 394.263009 -181.992232 
L 386.630995 -179.475248 
L 378.998982 -176.53266 
L 371.366969 -172.561948 
L 363.734955 -169.384892 
L 356.102942 -166.690551 
L 348.470929 -164.820344 
L 340.838915 -155.577745 
L 333.206902 -156.077464 
z
" id="m11eb812c00" style="stroke:#8c564b;stroke-opacity:0.2;"/>
    </defs>
    <g clip-path="url(#pe99795719f)">
     <use style="fill:#8c564b;fill-opacity:0.2;stroke:#8c564b;stroke-opacity:0.2;" x="0" xlink:href="#m11eb812c00" y="341.9175"/>
    </g>
   </g>
   <g id="PolyCollection_6">
    <defs>
     <path d="M 333.206902 -214.954483 
L 333.206902 -194.231105 
L 340.838915 -194.903247 
L 348.470929 -195.955747 
L 356.102942 -196.532926 
L 363.734955 -198.279938 
L 371.366969 -197.953216 
L 378.998982 -198.984321 
L 386.630995 -197.289704 
L 394.263009 -197.103931 
L 401.895022 -197.822631 
L 409.527035 -197.036036 
L 417.159049 -198.042549 
L 424.791062 -198.252117 
L 432.423075 -199.567901 
L 440.055089 -199.404513 
L 447.687102 -201.709988 
L 455.319115 -201.581665 
L 462.951129 -200.414036 
L 470.583142 -200.254291 
L 478.215156 -199.455066 
L 485.847169 -197.523648 
L 493.479182 -196.467295 
L 501.111196 -196.355627 
L 508.743209 -194.79792 
L 516.375222 -193.738604 
L 524.007236 -192.621008 
L 531.639249 -191.882732 
L 539.271262 -190.455766 
L 546.903276 -191.403195 
L 546.903276 -213.596187 
L 546.903276 -213.596187 
L 539.271262 -212.938272 
L 531.639249 -212.653262 
L 524.007236 -213.674946 
L 516.375222 -214.355806 
L 508.743209 -214.011662 
L 501.111196 -215.462377 
L 493.479182 -216.068386 
L 485.847169 -217.464002 
L 478.215156 -218.406692 
L 470.583142 -219.688443 
L 462.951129 -219.828016 
L 455.319115 -220.683074 
L 447.687102 -220.841945 
L 440.055089 -221.062232 
L 432.423075 -221.683457 
L 424.791062 -220.564496 
L 417.159049 -220.437202 
L 409.527035 -221.347743 
L 401.895022 -220.178424 
L 394.263009 -219.91467 
L 386.630995 -219.02604 
L 378.998982 -221.079416 
L 371.366969 -220.373479 
L 363.734955 -221.51417 
L 356.102942 -219.545705 
L 348.470929 -217.877987 
L 340.838915 -216.75725 
L 333.206902 -214.954483 
z
" id="m851e444114" style="stroke:#1f77b4;stroke-opacity:0.2;"/>
    </defs>
    <g clip-path="url(#pe99795719f)">
     <use style="fill:#1f77b4;fill-opacity:0.2;stroke:#1f77b4;stroke-opacity:0.2;" x="0" xlink:href="#m851e444114" y="341.9175"/>
    </g>
   </g>
   <g id="matplotlib.axis_3">
    <g id="xtick_5">
     <g id="line2d_12">
      <g>
       <use style="stroke:#000000;stroke-width:0.8;" x="325.574889" xlink:href="#m353e61ab0b" y="244.8175"/>
      </g>
     </g>
     <g id="text_12">
      <text style="font-family:FreeSans;font-size:15px;font-style:normal;font-weight:normal;text-anchor:middle;" transform="rotate(-0, 325.574889, 262.753437)" x="325.574889" y="262.753437">0</text>
     </g>
    </g>
    <g id="xtick_6">
     <g id="line2d_13">
      <g>
       <use style="stroke:#000000;stroke-width:0.8;" x="401.895022" xlink:href="#m353e61ab0b" y="244.8175"/>
      </g>
     </g>
     <g id="text_13">
      <text style="font-family:FreeSans;font-size:15px;font-style:normal;font-weight:normal;text-anchor:middle;" transform="rotate(-0, 401.895022, 262.753437)" x="401.895022" y="262.753437">10</text>
     </g>
    </g>
    <g id="xtick_7">
     <g id="line2d_14">
      <g>
       <use style="stroke:#000000;stroke-width:0.8;" x="478.215156" xlink:href="#m353e61ab0b" y="244.8175"/>
      </g>
     </g>
     <g id="text_14">
      <text style="font-family:FreeSans;font-size:15px;font-style:normal;font-weight:normal;text-anchor:middle;" transform="rotate(-0, 478.215156, 262.753437)" x="478.215156" y="262.753437">20</text>
     </g>
    </g>
    <g id="xtick_8">
     <g id="line2d_15">
      <g>
       <use style="stroke:#000000;stroke-width:0.8;" x="554.535289" xlink:href="#m353e61ab0b" y="244.8175"/>
      </g>
     </g>
     <g id="text_15">
      <text style="font-family:FreeSans;font-size:15px;font-style:normal;font-weight:normal;text-anchor:middle;" transform="rotate(-0, 554.535289, 262.753437)" x="554.535289" y="262.753437">30</text>
     </g>
    </g>
    <g id="text_16">
     <text style="font-family:FreeSans;font-size:20px;font-style:normal;font-weight:normal;text-anchor:middle;" transform="rotate(-0, 440.055089, 284.841719)" x="440.055089" y="284.841719">Split-trial</text>
    </g>
   </g>
   <g id="matplotlib.axis_4">
    <g id="ytick_5">
     <g id="line2d_16">
      <g>
       <use style="stroke:#000000;stroke-width:0.8;" x="322.522083" xlink:href="#m1223a7eeb0" y="201.9935"/>
      </g>
     </g>
    </g>
    <g id="ytick_6">
     <g id="line2d_17">
      <g>
       <use style="stroke:#000000;stroke-width:0.8;" x="322.522083" xlink:href="#m1223a7eeb0" y="144.894833"/>
      </g>
     </g>
    </g>
    <g id="ytick_7">
     <g id="line2d_18">
      <g>
       <use style="stroke:#000000;stroke-width:0.8;" x="322.522083" xlink:href="#m1223a7eeb0" y="87.796167"/>
      </g>
     </g>
    </g>
    <g id="ytick_8">
     <g id="line2d_19">
      <g>
       <use style="stroke:#000000;stroke-width:0.8;" x="322.522083" xlink:href="#m1223a7eeb0" y="30.6975"/>
      </g>
     </g>
    </g>
   </g>
   <g id="line2d_20">
    <path clip-path="url(#pe99795719f)" d="M 333.206902 139.566118 
L 340.838915 140.788526 
L 348.470929 140.145135 
L 356.102942 140.116857 
L 363.734955 139.955112 
L 371.366969 140.101845 
L 378.998982 139.825573 
L 386.630995 139.991567 
L 394.263009 139.887614 
L 401.895022 140.040126 
L 409.527035 139.879615 
L 417.159049 139.926833 
L 424.791062 139.86209 
L 432.423075 140.046563 
L 440.055089 139.928295 
L 447.687102 140.00327 
L 455.319115 139.889028 
L 462.951129 139.961009 
L 470.583142 139.998561 
L 478.215156 140.09899 
L 485.847169 139.999391 
L 493.479182 140.128988 
L 501.111196 140.219962 
L 508.743209 140.469845 
L 516.375222 140.388442 
L 524.007236 140.599769 
L 531.639249 140.727482 
L 539.271262 141.324495 
L 546.903276 140.406399 
" style="fill:none;stroke:#808080;stroke-linecap:square;stroke-width:2;"/>
   </g>
   <g id="line2d_21">
    <path clip-path="url(#pe99795719f)" d="M 333.206902 206.553426 
L 340.838915 208.756089 
L 348.470929 195.642398 
L 356.102942 191.650269 
L 363.734955 190.361552 
L 371.366969 186.755185 
L 378.998982 182.397977 
L 386.630995 178.03378 
L 394.263009 175.12575 
L 401.895022 171.788306 
L 409.527035 170.119295 
L 417.159049 170.741327 
L 424.791062 170.011202 
L 432.423075 172.010833 
L 440.055089 170.991194 
L 447.687102 173.604239 
L 455.319115 174.014795 
L 462.951129 172.651422 
L 470.583142 171.740089 
L 478.215156 169.359187 
L 485.847169 167.435022 
L 493.479182 168.489912 
L 501.111196 167.942219 
L 508.743209 164.513851 
L 516.375222 165.840843 
L 524.007236 165.07078 
L 531.639249 163.565369 
L 539.271262 163.615742 
L 546.903276 172.651814 
" style="fill:none;stroke:#8c564b;stroke-linecap:square;stroke-width:2;"/>
   </g>
   <g id="line2d_22">
    <path clip-path="url(#pe99795719f)" d="M 333.206902 137.751211 
L 340.838915 136.26592 
L 348.470929 135.293599 
L 356.102942 134.049541 
L 363.734955 132.6982 
L 371.366969 133.084122 
L 378.998982 132.682867 
L 386.630995 133.487069 
L 394.263009 133.24548 
L 401.895022 133.286994 
L 409.527035 132.901706 
L 417.159049 133.174144 
L 424.791062 132.603778 
L 432.423075 132.186862 
L 440.055089 131.635923 
L 447.687102 130.913325 
L 455.319115 130.831146 
L 462.951129 131.73243 
L 470.583142 132.060629 
L 478.215156 133.411034 
L 485.847169 135.121588 
L 493.479182 136.079478 
L 501.111196 136.479192 
L 508.743209 137.679527 
L 516.375222 138.033102 
L 524.007236 138.88234 
L 531.639249 139.69875 
L 539.271262 140.495846 
L 546.903276 140.360251 
" style="fill:none;stroke:#1f77b4;stroke-linecap:square;stroke-width:2;"/>
   </g>
   <g id="patch_8">
    <path d="M 322.522083 244.8175 
L 322.522083 30.6975 
" style="fill:none;stroke:#000000;stroke-linecap:square;stroke-linejoin:miter;stroke-width:0.8;"/>
   </g>
   <g id="patch_9">
    <path d="M 557.588094 244.8175 
L 557.588094 30.6975 
" style="fill:none;stroke:#000000;stroke-linecap:square;stroke-linejoin:miter;stroke-width:0.8;"/>
   </g>
   <g id="patch_10">
    <path d="M 322.522083 244.8175 
L 557.588094 244.8175 
" style="fill:none;stroke:#000000;stroke-linecap:square;stroke-linejoin:miter;stroke-width:0.8;"/>
   </g>
   <g id="patch_11">
    <path d="M 322.522083 30.6975 
L 557.588094 30.6975 
" style="fill:none;stroke:#000000;stroke-linecap:square;stroke-linejoin:miter;stroke-width:0.8;"/>
   </g>
   <g id="text_17">
    <text style="font-family:FreeSans;font-size:24px;font-style:normal;font-weight:normal;text-anchor:middle;" transform="rotate(-0, 440.055089, 24.6975)" x="440.055089" y="24.6975">Session 2</text>
   </g>
  </g>
  <g id="axes_3">
   <g id="patch_12">
    <path d="M 587.475417 244.8175 
L 822.541428 244.8175 
L 822.541428 30.6975 
L 587.475417 30.6975 
z
" style="fill:#ffffff;"/>
   </g>
   <g id="PolyCollection_7">
    <defs>
     <path d="M 598.160235 -229.798721 
L 598.160235 -226.203581 
L 605.792249 -225.378801 
L 613.424262 -225.865722 
L 621.056275 -225.954757 
L 628.688289 -226.058856 
L 636.320302 -225.611882 
L 643.952315 -225.767589 
L 651.584329 -225.699584 
L 659.216342 -225.986193 
L 666.848355 -225.929827 
L 674.480369 -225.937807 
L 682.112382 -226.078458 
L 689.744395 -226.056652 
L 697.376409 -226.026901 
L 705.008422 -226.082995 
L 712.640435 -225.941139 
L 720.272449 -225.838267 
L 727.904462 -225.93485 
L 735.536476 -225.906432 
L 743.168489 -225.819861 
L 750.800502 -225.894562 
L 758.432516 -225.822432 
L 766.064529 -225.787994 
L 773.696542 -225.880889 
L 781.328556 -225.857596 
L 788.960569 -225.705078 
L 796.592582 -225.973953 
L 804.224596 -225.421511 
L 811.856609 -226.341292 
L 811.856609 -229.919364 
L 811.856609 -229.919364 
L 804.224596 -229.105395 
L 796.592582 -229.374309 
L 788.960569 -229.413834 
L 781.328556 -229.329692 
L 773.696542 -229.39529 
L 766.064529 -229.377494 
L 758.432516 -229.309859 
L 750.800502 -229.358194 
L 743.168489 -229.432656 
L 735.536476 -229.632558 
L 727.904462 -229.484412 
L 720.272449 -229.399576 
L 712.640435 -229.477052 
L 705.008422 -229.6691 
L 697.376409 -229.320515 
L 689.744395 -229.513917 
L 682.112382 -229.526615 
L 674.480369 -229.356145 
L 666.848355 -229.419264 
L 659.216342 -229.645365 
L 651.584329 -229.320235 
L 643.952315 -229.49991 
L 636.320302 -229.206641 
L 628.688289 -229.420617 
L 621.056275 -229.372854 
L 613.424262 -229.402653 
L 605.792249 -228.983475 
L 598.160235 -229.798721 
z
" id="m6383da503c" style="stroke:#808080;stroke-opacity:0.2;"/>
    </defs>
    <g clip-path="url(#p80a1762495)">
     <use style="fill:#808080;fill-opacity:0.2;stroke:#808080;stroke-opacity:0.2;" x="0" xlink:href="#m6383da503c" y="341.9175"/>
    </g>
   </g>
   <g id="PolyCollection_8">
    <defs>
     <path d="M 598.160235 -200.18897 
L 598.160235 -135.883428 
L 605.792249 -134.611122 
L 613.424262 -146.371465 
L 621.056275 -163.520234 
L 628.688289 -165.93613 
L 636.320302 -168.682049 
L 643.952315 -174.048378 
L 651.584329 -175.027623 
L 659.216342 -173.014009 
L 666.848355 -173.729382 
L 674.480369 -172.687241 
L 682.112382 -170.860304 
L 689.744395 -171.041169 
L 697.376409 -173.224559 
L 705.008422 -171.189011 
L 712.640435 -171.550235 
L 720.272449 -174.291092 
L 727.904462 -172.815465 
L 735.536476 -173.991857 
L 743.168489 -174.074021 
L 750.800502 -174.990179 
L 758.432516 -176.212878 
L 766.064529 -179.413782 
L 773.696542 -181.582483 
L 781.328556 -174.720563 
L 788.960569 -175.01163 
L 796.592582 -169.984901 
L 804.224596 -166.622989 
L 811.856609 -146.945892 
L 811.856609 -216.367151 
L 811.856609 -216.367151 
L 804.224596 -225.96947 
L 796.592582 -224.532464 
L 788.960569 -228.924462 
L 781.328556 -229.275186 
L 773.696542 -231.10018 
L 766.064529 -230.230391 
L 758.432516 -229.032939 
L 750.800502 -231.752685 
L 743.168489 -229.786988 
L 735.536476 -228.793089 
L 727.904462 -230.42357 
L 720.272449 -232.607815 
L 712.640435 -230.17225 
L 705.008422 -228.409057 
L 697.376409 -228.780492 
L 689.744395 -227.416431 
L 682.112382 -227.050517 
L 674.480369 -227.715591 
L 666.848355 -227.289525 
L 659.216342 -226.848861 
L 651.584329 -227.518305 
L 643.952315 -225.988489 
L 636.320302 -222.491586 
L 628.688289 -218.164772 
L 621.056275 -218.375215 
L 613.424262 -208.313743 
L 605.792249 -198.783018 
L 598.160235 -200.18897 
z
" id="m6f7ac72a39" style="stroke:#8c564b;stroke-opacity:0.2;"/>
    </defs>
    <g clip-path="url(#p80a1762495)">
     <use style="fill:#8c564b;fill-opacity:0.2;stroke:#8c564b;stroke-opacity:0.2;" x="0" xlink:href="#m6f7ac72a39" y="341.9175"/>
    </g>
   </g>
   <g id="PolyCollection_9">
    <defs>
     <path d="M 598.160235 -245.979785 
L 598.160235 -211.345387 
L 605.792249 -211.63159 
L 613.424262 -211.799058 
L 621.056275 -212.409559 
L 628.688289 -214.934984 
L 636.320302 -215.067366 
L 643.952315 -214.551132 
L 651.584329 -215.449433 
L 659.216342 -217.334758 
L 666.848355 -218.366163 
L 674.480369 -220.052589 
L 682.112382 -221.580936 
L 689.744395 -222.577758 
L 697.376409 -220.486454 
L 705.008422 -220.950749 
L 712.640435 -220.962669 
L 720.272449 -220.977832 
L 727.904462 -221.518957 
L 735.536476 -221.212426 
L 743.168489 -220.863626 
L 750.800502 -220.474296 
L 758.432516 -218.355856 
L 766.064529 -216.725824 
L 773.696542 -215.309632 
L 781.328556 -215.922544 
L 788.960569 -213.816886 
L 796.592582 -213.124551 
L 804.224596 -212.314733 
L 811.856609 -211.029978 
L 811.856609 -247.13416 
L 811.856609 -247.13416 
L 804.224596 -246.214979 
L 796.592582 -247.342453 
L 788.960569 -247.873292 
L 781.328556 -249.100551 
L 773.696542 -246.960811 
L 766.064529 -249.029069 
L 758.432516 -249.380342 
L 750.800502 -249.686149 
L 743.168489 -250.658856 
L 735.536476 -251.812427 
L 727.904462 -251.166426 
L 720.272449 -252.401929 
L 712.640435 -251.699929 
L 705.008422 -251.994005 
L 697.376409 -250.394247 
L 689.744395 -252.356111 
L 682.112382 -250.811466 
L 674.480369 -250.334423 
L 666.848355 -252.110536 
L 659.216342 -247.904125 
L 651.584329 -248.528669 
L 643.952315 -247.225699 
L 636.320302 -247.30198 
L 628.688289 -247.866459 
L 621.056275 -247.130992 
L 613.424262 -247.842504 
L 605.792249 -246.5981 
L 598.160235 -245.979785 
z
" id="m2a8d12168e" style="stroke:#1f77b4;stroke-opacity:0.2;"/>
    </defs>
    <g clip-path="url(#p80a1762495)">
     <use style="fill:#1f77b4;fill-opacity:0.2;stroke:#1f77b4;stroke-opacity:0.2;" x="0" xlink:href="#m2a8d12168e" y="341.9175"/>
    </g>
   </g>
   <g id="matplotlib.axis_5">
    <g id="xtick_9">
     <g id="line2d_23">
      <g>
       <use style="stroke:#000000;stroke-width:0.8;" x="590.528222" xlink:href="#m353e61ab0b" y="244.8175"/>
      </g>
     </g>
     <g id="text_18">
      <text style="font-family:FreeSans;font-size:15px;font-style:normal;font-weight:normal;text-anchor:middle;" transform="rotate(-0, 590.528222, 262.753437)" x="590.528222" y="262.753437">0</text>
     </g>
    </g>
    <g id="xtick_10">
     <g id="line2d_24">
      <g>
       <use style="stroke:#000000;stroke-width:0.8;" x="666.848355" xlink:href="#m353e61ab0b" y="244.8175"/>
      </g>
     </g>
     <g id="text_19">
      <text style="font-family:FreeSans;font-size:15px;font-style:normal;font-weight:normal;text-anchor:middle;" transform="rotate(-0, 666.848355, 262.753437)" x="666.848355" y="262.753437">10</text>
     </g>
    </g>
    <g id="xtick_11">
     <g id="line2d_25">
      <g>
       <use style="stroke:#000000;stroke-width:0.8;" x="743.168489" xlink:href="#m353e61ab0b" y="244.8175"/>
      </g>
     </g>
     <g id="text_20">
      <text style="font-family:FreeSans;font-size:15px;font-style:normal;font-weight:normal;text-anchor:middle;" transform="rotate(-0, 743.168489, 262.753437)" x="743.168489" y="262.753437">20</text>
     </g>
    </g>
    <g id="xtick_12">
     <g id="line2d_26">
      <g>
       <use style="stroke:#000000;stroke-width:0.8;" x="819.488622" xlink:href="#m353e61ab0b" y="244.8175"/>
      </g>
     </g>
     <g id="text_21">
      <text style="font-family:FreeSans;font-size:15px;font-style:normal;font-weight:normal;text-anchor:middle;" transform="rotate(-0, 819.488622, 262.753437)" x="819.488622" y="262.753437">30</text>
     </g>
    </g>
    <g id="text_22">
     <text style="font-family:FreeSans;font-size:20px;font-style:normal;font-weight:normal;text-anchor:middle;" transform="rotate(-0, 705.008422, 284.841719)" x="705.008422" y="284.841719">Split-trial</text>
    </g>
   </g>
   <g id="matplotlib.axis_6">
    <g id="ytick_9">
     <g id="line2d_27">
      <g>
       <use style="stroke:#000000;stroke-width:0.8;" x="587.475417" xlink:href="#m1223a7eeb0" y="201.9935"/>
      </g>
     </g>
    </g>
    <g id="ytick_10">
     <g id="line2d_28">
      <g>
       <use style="stroke:#000000;stroke-width:0.8;" x="587.475417" xlink:href="#m1223a7eeb0" y="144.894833"/>
      </g>
     </g>
    </g>
    <g id="ytick_11">
     <g id="line2d_29">
      <g>
       <use style="stroke:#000000;stroke-width:0.8;" x="587.475417" xlink:href="#m1223a7eeb0" y="87.796167"/>
      </g>
     </g>
    </g>
    <g id="ytick_12">
     <g id="line2d_30">
      <g>
       <use style="stroke:#000000;stroke-width:0.8;" x="587.475417" xlink:href="#m1223a7eeb0" y="30.6975"/>
      </g>
     </g>
    </g>
   </g>
   <g id="line2d_31">
    <path clip-path="url(#p80a1762495)" d="M 598.160235 113.880741 
L 605.792249 114.824198 
L 613.424262 114.243887 
L 621.056275 114.354392 
L 628.688289 114.234954 
L 636.320302 114.444683 
L 643.952315 114.26291 
L 651.584329 114.358282 
L 659.216342 114.144295 
L 666.848355 114.250042 
L 674.480369 114.253865 
L 682.112382 114.222974 
L 689.744395 114.197585 
L 697.376409 114.199101 
L 705.008422 114.10603 
L 712.640435 114.171386 
L 720.272449 114.287913 
L 727.904462 114.236521 
L 735.536476 114.20067 
L 743.168489 114.278063 
L 750.800502 114.281334 
L 758.432516 114.3293 
L 766.064529 114.26627 
L 773.696542 114.32242 
L 781.328556 114.279423 
L 788.960569 114.401744 
L 796.592582 114.210095 
L 804.224596 114.750923 
L 811.856609 113.778795 
" style="fill:none;stroke:#808080;stroke-linecap:square;stroke-width:2;"/>
   </g>
   <g id="line2d_32">
    <path clip-path="url(#p80a1762495)" d="M 598.160235 175.511492 
L 605.792249 175.85025 
L 613.424262 163.530184 
L 621.056275 149.235502 
L 628.688289 149.815596 
L 636.320302 145.761283 
L 643.952315 140.464188 
L 651.584329 141.238414 
L 659.216342 141.291402 
L 666.848355 141.380438 
L 674.480369 141.422532 
L 682.112382 142.236944 
L 689.744395 142.391014 
L 697.376409 141.372061 
L 705.008422 140.862748 
L 712.640435 139.056535 
L 720.272449 139.384049 
L 727.904462 140.09236 
L 735.536476 139.334389 
L 743.168489 138.860905 
L 750.800502 139.183874 
L 758.432516 138.629876 
L 766.064529 136.833251 
L 773.696542 135.889804 
L 781.328556 138.473702 
L 788.960569 139.603236 
L 796.592582 143.801273 
L 804.224596 143.43677 
L 811.856609 160.341917 
" style="fill:none;stroke:#8c564b;stroke-linecap:square;stroke-width:2;"/>
   </g>
   <g id="line2d_33">
    <path clip-path="url(#p80a1762495)" d="M 598.160235 112.322328 
L 605.792249 112.738965 
L 613.424262 112.025667 
L 621.056275 111.537781 
L 628.688289 110.385975 
L 636.320302 110.66976 
L 643.952315 110.745032 
L 651.584329 109.604535 
L 659.216342 109.145959 
L 666.848355 107.789026 
L 674.480369 106.403906 
L 682.112382 105.495069 
L 689.744395 105.17713 
L 697.376409 105.799855 
L 705.008422 105.608833 
L 712.640435 105.645664 
L 720.272449 105.167838 
L 727.904462 104.769936 
L 735.536476 105.385948 
L 743.168489 106.487003 
L 750.800502 106.933229 
L 758.432516 107.959657 
L 766.064529 109.332881 
L 773.696542 110.24634 
L 781.328556 110.342626 
L 788.960569 111.397798 
L 796.592582 111.703286 
L 804.224596 112.196087 
L 811.856609 112.909172 
" style="fill:none;stroke:#1f77b4;stroke-linecap:square;stroke-width:2;"/>
   </g>
   <g id="patch_13">
    <path d="M 587.475417 244.8175 
L 587.475417 30.6975 
" style="fill:none;stroke:#000000;stroke-linecap:square;stroke-linejoin:miter;stroke-width:0.8;"/>
   </g>
   <g id="patch_14">
    <path d="M 822.541428 244.8175 
L 822.541428 30.6975 
" style="fill:none;stroke:#000000;stroke-linecap:square;stroke-linejoin:miter;stroke-width:0.8;"/>
   </g>
   <g id="patch_15">
    <path d="M 587.475417 244.8175 
L 822.541428 244.8175 
" style="fill:none;stroke:#000000;stroke-linecap:square;stroke-linejoin:miter;stroke-width:0.8;"/>
   </g>
   <g id="patch_16">
    <path d="M 587.475417 30.6975 
L 822.541428 30.6975 
" style="fill:none;stroke:#000000;stroke-linecap:square;stroke-linejoin:miter;stroke-width:0.8;"/>
   </g>
   <g id="text_23">
    <text style="font-family:FreeSans;font-size:24px;font-style:normal;font-weight:normal;text-anchor:middle;" transform="rotate(-0, 705.008422, 24.6975)" x="705.008422" y="24.6975">Session 3</text>
   </g>
  </g>
  <g id="legend_1">
   <g id="patch_17">
    <path d="M 429 330.8175 
L 435 330.8175 
Q 438 330.8175 438 327.8175 
L 438 321.8175 
Q 438 318.8175 435 318.8175 
L 429 318.8175 
Q 426 318.8175 426 321.8175 
L 426 327.8175 
Q 426 330.8175 429 330.8175 
z
" style="fill:#ffffff;opacity:0.8;stroke:#cccccc;stroke-linejoin:miter;"/>
   </g>
  </g>
 </g>
 <defs>
  <clipPath id="p0152f909c2">
   <rect height="214.12" width="235.066011" x="57.56875" y="30.6975"/>
  </clipPath>
  <clipPath id="pe99795719f">
   <rect height="214.12" width="235.066011" x="322.522083" y="30.6975"/>
  </clipPath>
  <clipPath id="p80a1762495">
   <rect height="214.12" width="235.066011" x="587.475417" y="30.6975"/>
  </clipPath>
 </defs>
</svg>
